<svg width="76" height="56" viewBox="0 0 76 56" fill="none" xmlns="http://www.w3.org/2000/svg">
<path d="M74.5 32C74.2373 32.197 73.9385 32.3403 73.6204 32.4218C73.3024 32.5033 72.9714 32.5213 72.6464 32.4749C72.3214 32.4284 72.0087 32.3184 71.7262 32.1512C71.4437 31.9839 71.197 31.7626 71 31.5C69.4931 29.4746 67.5318 27.8312 65.2738 26.7022C63.0159 25.5733 60.5244 24.9902 58 25C57.5084 24.9999 57.0277 24.855 56.618 24.5832C56.2084 24.3114 55.888 23.9248 55.6968 23.4719C55.5671 23.1643 55.5002 22.8338 55.5002 22.5C55.5002 22.1662 55.5671 21.8357 55.6968 21.5281C55.888 21.0752 56.2084 20.6886 56.618 20.4168C57.0277 20.145 57.5084 20 58 20C59.4027 19.9999 60.7773 19.6064 61.9676 18.8642C63.1579 18.122 64.1162 17.0609 64.7336 15.8014C65.3511 14.5419 65.6029 13.1344 65.4606 11.7389C65.3183 10.3434 64.7874 9.01585 63.9284 7.90693C63.0693 6.79802 61.9165 5.95224 60.6009 5.46566C59.2853 4.97909 57.8596 4.87122 56.4857 5.15431C55.1118 5.4374 53.8449 6.1001 52.8288 7.06715C51.8127 8.03419 51.0882 9.26681 50.7375 10.625C50.6554 10.943 50.5115 11.2418 50.3139 11.5042C50.1164 11.7666 49.8691 11.9876 49.5862 12.1545C49.3033 12.3213 48.9902 12.4308 48.665 12.4767C48.3397 12.5226 48.0086 12.5039 47.6906 12.4219C47.3726 12.3398 47.0738 12.1959 46.8114 11.9983C46.5489 11.8008 46.328 11.5535 46.1611 11.2706C45.9943 10.9876 45.8848 10.6746 45.8389 10.3494C45.793 10.0241 45.8116 9.69303 45.8937 9.37499C46.3805 7.49159 47.3 5.74779 48.5793 4.28234C49.8586 2.81688 51.4622 1.67022 53.2626 0.933583C55.063 0.19695 57.0105 -0.109318 58.9501 0.0391459C60.8897 0.18761 62.7679 0.78671 64.4352 1.78877C66.1025 2.79084 67.513 4.16821 68.5543 5.8113C69.5956 7.45438 70.2391 9.31782 70.4335 11.2534C70.6279 13.1889 70.3679 15.1431 69.6742 16.9605C68.9805 18.7778 67.8722 20.4082 66.4375 21.7219C69.8369 23.1937 72.792 25.5294 75.0093 28.4969C75.2063 28.7602 75.3494 29.0598 75.4304 29.3785C75.5114 29.6972 75.5288 30.0287 75.4815 30.3541C75.4342 30.6795 75.3231 30.9924 75.1547 31.2748C74.9863 31.5572 74.7638 31.8037 74.5 32ZM57.6625 51.25C57.8434 51.5345 57.9648 51.8527 58.0195 52.1854C58.0743 52.5181 58.0611 52.8585 57.9809 53.186C57.9007 53.5134 57.7551 53.8213 57.5528 54.0911C57.3505 54.3608 57.0957 54.5869 56.8038 54.7556C56.5119 54.9243 56.1889 55.0323 55.8541 55.0729C55.5194 55.1136 55.18 55.0861 54.8561 54.9922C54.5323 54.8982 54.2308 54.7398 53.9699 54.5263C53.7089 54.3128 53.4938 54.0487 53.3375 53.75C51.7626 51.0833 49.5197 48.8734 46.8301 47.3381C44.1404 45.8029 41.0969 44.9954 38 44.9954C34.903 44.9954 31.8595 45.8029 29.1699 47.3381C26.4802 48.8734 24.2373 51.0833 22.6625 53.75C22.5062 54.0487 22.2911 54.3128 22.0301 54.5263C21.7691 54.7398 21.4676 54.8982 21.1438 54.9922C20.82 55.0861 20.4805 55.1136 20.1458 55.0729C19.8111 55.0323 19.4881 54.9243 19.1961 54.7556C18.9042 54.5869 18.6495 54.3608 18.4472 54.0911C18.2449 53.8213 18.0993 53.5134 18.019 53.186C17.9388 52.8585 17.9257 52.5181 17.9804 52.1854C18.0351 51.8527 18.1566 51.5345 18.3375 51.25C20.7612 47.0855 24.4568 43.8083 28.8812 41.9C26.3916 39.9939 24.5619 37.3555 23.6493 34.3557C22.7368 31.3559 22.7872 28.1456 23.7935 25.1759C24.7998 22.2063 26.7114 19.6266 29.2596 17.7996C31.8078 15.9726 34.8645 14.99 38 14.99C41.1355 14.99 44.1922 15.9726 46.7404 17.7996C49.2886 19.6266 51.2002 22.2063 52.2065 25.1759C53.2128 28.1456 53.2632 31.3559 52.3506 34.3557C51.438 37.3555 49.6083 39.9939 47.1187 41.9C51.5431 43.8083 55.2387 47.0855 57.6625 51.25ZM38 40C39.9778 40 41.9112 39.4135 43.5557 38.3147C45.2002 37.2159 46.4819 35.6541 47.2388 33.8268C47.9956 31.9996 48.1937 29.9889 47.8078 28.0491C47.422 26.1093 46.4696 24.3274 45.071 22.9289C43.6725 21.5304 41.8907 20.578 39.9509 20.1921C38.0111 19.8063 36.0004 20.0043 34.1731 20.7612C32.3459 21.5181 30.7841 22.7998 29.6853 24.4443C28.5865 26.0888 28 28.0222 28 30C28 32.6522 29.0535 35.1957 30.9289 37.0711C32.8043 38.9464 35.3478 40 38 40ZM20.5 22.5C20.5 21.8369 20.2366 21.2011 19.7677 20.7322C19.2989 20.2634 18.663 20 18 20C16.5972 19.9999 15.2227 19.6064 14.0324 18.8642C12.8421 18.122 11.8838 17.0609 11.2663 15.8014C10.6489 14.5419 10.397 13.1344 10.5393 11.7389C10.6817 10.3434 11.2125 9.01585 12.0716 7.90693C12.9306 6.79802 14.0834 5.95224 15.399 5.46566C16.7147 4.97909 18.1404 4.87122 19.5142 5.15431C20.8881 5.4374 22.155 6.1001 23.1711 7.06715C24.1872 8.03419 24.9118 9.26681 25.2625 10.625C25.4282 11.2673 25.8424 11.8175 26.4138 12.1545C26.9852 12.4914 27.667 12.5876 28.3093 12.4219C28.9517 12.2561 29.5018 11.842 29.8388 11.2706C30.1758 10.6992 30.272 10.0173 30.1062 9.37499C29.6195 7.49159 28.6999 5.74779 27.4206 4.28234C26.1414 2.81688 24.5377 1.67022 22.7373 0.933583C20.9369 0.19695 18.9894 -0.109318 17.0498 0.0391459C15.1102 0.18761 13.2321 0.78671 11.5647 1.78877C9.89742 2.79084 8.48699 4.16821 7.44566 5.8113C6.40433 7.45438 5.76086 9.31782 5.56644 11.2534C5.37201 13.1889 5.63201 15.1431 6.32573 16.9605C7.01946 18.7778 8.12777 20.4082 9.56247 21.7219C6.16648 23.1951 3.2147 25.5307 0.999972 28.4969C0.601733 29.0273 0.430518 29.6942 0.523993 30.3509C0.617468 31.0075 0.967976 31.6002 1.49841 31.9984C2.02884 32.3967 2.69575 32.5679 3.35242 32.4744C4.00909 32.3809 4.60173 32.0304 4.99997 31.5C6.5068 29.4746 8.46814 27.8312 10.7261 26.7022C12.984 25.5733 15.4755 24.9902 18 25C18.663 25 19.2989 24.7366 19.7677 24.2678C20.2366 23.7989 20.5 23.163 20.5 22.5Z" fill="#F96E04"/>
</svg>
