<svg width="66" height="64" viewBox="0 0 66 64" fill="none" xmlns="http://www.w3.org/2000/svg">
<path d="M65.1625 59.25C60.4031 51.0218 53.0687 45.1218 44.5094 42.325C48.7432 39.8045 52.0327 35.964 53.8725 31.3931C55.7124 26.8222 56.001 21.7737 54.6939 17.0229C53.3869 12.2722 50.5565 8.08181 46.6374 5.09535C42.7183 2.10888 37.9273 0.491455 33 0.491455C28.0727 0.491455 23.2816 2.10888 19.3626 5.09535C15.4435 8.08181 12.6131 12.2722 11.3061 17.0229C9.99901 21.7737 10.2876 26.8222 12.1275 31.3931C13.9673 35.964 17.2568 39.8045 21.4906 42.325C12.9312 45.1187 5.59687 51.0187 0.837492 59.25C0.662957 59.5345 0.547189 59.8512 0.497019 60.1813C0.446849 60.5113 0.463293 60.8481 0.54538 61.1717C0.627467 61.4953 0.773535 61.7991 0.974966 62.0654C1.1764 62.3316 1.42911 62.5548 1.71819 62.7218C2.00728 62.8888 2.32688 62.9961 2.65814 63.0376C2.9894 63.0791 3.32561 63.0538 3.64693 62.9632C3.96826 62.8726 4.26818 62.7186 4.52902 62.5102C4.78985 62.3018 5.00631 62.0433 5.16562 61.75C11.0531 51.575 21.4594 45.5 33 45.5C44.5406 45.5 54.9469 51.575 60.8344 61.75C60.9937 62.0433 61.2101 62.3018 61.471 62.5102C61.7318 62.7186 62.0317 62.8726 62.353 62.9632C62.6744 63.0538 63.0106 63.0791 63.3418 63.0376C63.6731 62.9961 63.9927 62.8888 64.2818 62.7218C64.5709 62.5548 64.8236 62.3316 65.025 62.0654C65.2264 61.7991 65.3725 61.4953 65.4546 61.1717C65.5367 60.8481 65.5531 60.5113 65.503 60.1813C65.4528 59.8512 65.337 59.5345 65.1625 59.25ZM15.5 23C15.5 19.5388 16.5263 16.1553 18.4493 13.2775C20.3722 10.3996 23.1053 8.1566 26.303 6.83206C29.5007 5.50753 33.0194 5.16097 36.4141 5.83621C39.8087 6.51146 42.9269 8.17817 45.3744 10.6256C47.8218 13.073 49.4885 16.1912 50.1637 19.5859C50.839 22.9805 50.4924 26.4992 49.1679 29.6969C47.8433 32.8946 45.6003 35.6278 42.7225 37.5507C39.8446 39.4736 36.4612 40.5 33 40.5C28.3602 40.495 23.9119 38.6497 20.6311 35.3688C17.3503 32.088 15.505 27.6397 15.5 23Z" fill="#F96E04"/>
</svg>
